<svg data-v-423bf9ae="" xmlns="http://www.w3.org/2000/svg" viewBox="0 0 5651 7041" class="iconLeftSlogan"><!----><!----><!----><g data-v-423bf9ae="" id="b02ad0d8-2e9e-42f9-9d47-5bfc9c95e2d0" fill="black" transform="matrix(4.882017915885615,0,0,4.882017915885615,5516.118244795262,-17.42880387222037)"><path d="M1.36 12.61L1.36 12.61L1.36 12.61Q1.65 10.64 1.81 8.82L1.81 8.82L1.81 8.82Q1.97 7 1.97 5.52L1.97 5.52L1.97 5.52Q1.97 4.03 1.78 3.57L1.78 3.57L1.78 3.57Q3.28 3.96 3.65 4.80L3.65 4.80L3.65 4.80Q4.73 4.20 5.94 4.20L5.94 4.20L5.94 4.20Q7.14 4.20 7.90 4.88L7.90 4.88L7.90 4.88Q8.67 5.56 8.67 6.53L8.67 6.53L8.67 6.53Q8.67 7.50 7.97 8.34L7.97 8.34L7.97 8.34Q7.27 9.17 6.05 9.58L6.05 9.58L6.05 9.58Q7.03 9.79 7.85 10.52L7.85 10.52L7.85 10.52Q8.67 11.26 8.67 12.33L8.67 12.33L8.67 12.33Q8.67 13.99 7.44 14.88L7.44 14.88L7.44 14.88Q6.22 15.76 4.35 15.76L4.35 15.76L4.35 15.76Q2.48 15.76 1.05 14.69L1.05 14.69L1.05 14.69Q1.06 14.57 1.36 12.61ZM6.69 6.86L6.69 6.86Q6.69 6.23 6.30 5.80L6.30 5.80L6.30 5.80Q5.91 5.38 5.19 5.38L5.19 5.38L5.19 5.38Q4.48 5.38 3.82 5.67L3.82 5.67L3.82 5.67Q3.82 6.52 3.45 9.97L3.45 9.97L3.45 9.97Q3.08 13.41 3.08 14.38L3.08 14.38L3.08 14.38Q3.70 14.63 4.27 14.63L4.27 14.63L4.27 14.63Q5.26 14.63 5.91 13.97L5.91 13.97L5.91 13.97Q6.55 13.31 6.55 12.32L6.55 12.32L6.55 12.32Q6.55 11.33 5.88 10.66L5.88 10.66L5.88 10.66Q5.21 10.00 4.00 9.94L4.00 9.94L3.96 9.44L3.96 9.44Q5.25 9.25 5.97 8.49L5.97 8.49L5.97 8.49Q6.69 7.73 6.69 6.86L6.69 6.86ZM14.03 15.64L14.03 15.64L14.03 15.64Q12.38 15.64 11.26 14.38L11.26 14.38L11.26 14.38Q10.14 13.12 10.14 10.71L10.14 10.71L10.14 10.71Q10.14 8.02 11.52 6.13L11.52 6.13L11.52 6.13Q12.21 5.22 13.28 4.68L13.28 4.68L13.28 4.68Q14.35 4.14 15.76 4.14L15.76 4.14L15.76 4.14Q17.16 4.14 17.90 4.89L17.90 4.89L17.90 4.89Q18.63 5.64 18.63 6.66L18.63 6.66L18.63 6.66Q18.63 7.67 18.07 8.31L18.07 8.31L18.07 8.31Q17.51 8.95 16.62 8.95L16.62 8.95L16.62 8.95Q16.31 8.95 15.90 8.83L15.90 8.83L15.90 8.83Q16.20 8.47 16.42 7.80L16.42 7.80L16.42 7.80Q16.65 7.13 16.65 6.52L16.65 6.52L16.65 6.52Q16.65 5.92 16.37 5.54L16.37 5.54L16.37 5.54Q16.09 5.17 15.48 5.17L15.48 5.17L15.48 5.17Q14.56 5.17 13.82 6.02L13.82 6.02L13.82 6.02Q13.08 6.87 12.71 8.12L12.71 8.12L12.71 8.12Q12.35 9.37 12.35 10.70L12.35 10.70L12.35 10.70Q12.35 12.49 13.05 13.41L13.05 13.41L13.05 13.41Q13.75 14.34 14.84 14.34L14.84 14.34L14.84 14.34Q15.53 14.34 16.27 13.87L16.27 13.87L16.27 13.87Q17.01 13.41 17.68 12.56L17.68 12.56L17.68 12.56Q18.20 12.67 18.20 13.08L18.20 13.08L18.20 13.08Q17.67 14.04 16.90 14.64L16.90 14.64L16.90 14.64Q16.13 15.25 15.44 15.44L15.44 15.44L15.44 15.44Q14.76 15.64 14.03 15.64ZM19.52 4.49L19.52 4.49L19.52 4.49Q21.03 4.75 23.14 4.75L23.14 4.75L23.14 4.75Q25.26 4.75 27.57 4.24L27.57 4.24L27.57 4.24Q27.33 6.02 25.76 6.19L25.76 6.19L25.76 6.19Q25.27 6.26 24.25 6.33L24.25 6.33L24.25 6.33Q24.22 6.73 23.79 9.88L23.79 9.88L23.79 9.88Q23.35 13.02 23.35 14.21L23.35 14.21L23.35 14.21Q23.35 15.40 23.55 15.86L23.55 15.86L23.55 15.86Q22.36 15.55 21.92 15.04L21.92 15.04L21.92 15.04Q21.49 14.53 21.49 13.78L21.49 13.78L21.49 13.78Q21.49 13.02 21.85 10.49L21.85 10.49L21.85 10.49Q22.20 7.97 22.27 6.43L22.27 6.43L22.27 6.43Q21.14 6.48 20.05 6.48L20.05 6.48L20.05 6.48Q19.40 6.48 19.40 5.33L19.40 5.33L19.40 5.33Q19.43 4.79 19.52 4.49Z"></path></g><!----><g data-v-423bf9ae="" id="202fce46-6dcc-4699-977f-633b4fc06772" transform="matrix(8.844444444444445,0,0,8.844444444444445,-1671.2222222222226,-901.2222222222226)" stroke="none" fill="black"><g clip-rule="evenodd"><path d="M776 621h35v69h-35zM741 690h35v35h-35zM707 725h34v34h-34zM638 863h103v35H638zM638 759h69v35h-69zM603 794h35v69h-35zM741 794h35v69h-35zM776.1 586H811V413h-35v-34h-69v-69h35v-35h34V102h-34v35h-35v34h-69v-34h-35v-35h-34v173h34v35h35v207h-35v35h-34v34h138v35h69v-35h.1zM707 206h35v34h-35v-34zm-69 34h-35v-34h35v34zM224 275h69v-35h-35V137h35v-35h-69v35h-35v103h35zM224 621h34v69h-34zM258 690h35v35h-35zM293 725h34v34h-34zM293 863h104v35H293zM327 759h70v35h-70zM397 794h34v69h-34zM258 794h35v69h-35zM500 137h-34v34h-69v-34h-35v-35h-35v173h35v35h35v69h-70v34h-34v173h-35v35h69v-35h208v-34h-35v-35h-34V310h34v-35h35V102h-35v35zM397 240h-35v-34h35v34zm103 0h-34v-34h34v34z"></path></g></g><!----><g data-v-423bf9ae="" id="8f245120-5433-40ad-8a19-cd87de7ecff6" fill="black" transform="matrix(0.30047546186306434,0,0,0.30047546186306434,5520.781511856447,58.686923172315986)"><path d="M1.54 13.78L4.13 13.78C6.20 13.78 7.57 12.88 7.57 11.07C7.57 9.80 6.75 9.04 5.39 8.85L5.39 8.79C6.47 8.53 7.01 7.71 7.01 6.78C7.01 5.21 5.81 4.54 3.93 4.54L1.54 4.54ZM2.39 8.57L2.39 5.21L3.78 5.21C5.36 5.21 6.19 5.68 6.19 6.80C6.19 7.94 5.49 8.57 3.71 8.57ZM2.39 13.10L2.39 9.21L3.96 9.21C5.74 9.21 6.75 9.79 6.75 11.06C6.75 12.47 5.70 13.10 3.96 13.10ZM17.42 13.78L22.96 13.78L22.96 13.06L18.23 13.06L18.23 4.54L17.42 4.54ZM31.37 13.78L32.21 13.78L33.22 10.71L36.76 10.71L37.76 13.78L38.63 13.78L35.45 4.54L34.55 4.54ZM33.47 10.02L33.99 8.41C34.34 7.34 34.65 6.37 34.97 5.25L35.03 5.25C35.34 6.37 35.64 7.34 36.01 8.41L36.53 10.02ZM51.11 13.94C52.29 13.94 53.16 13.44 53.87 12.63L53.38 12.11C52.74 12.82 52.07 13.20 51.16 13.20C49.25 13.20 48.05 11.61 48.05 9.13C48.05 6.66 49.25 5.11 51.18 5.11C52.00 5.11 52.65 5.47 53.14 6.01L53.62 5.46C53.12 4.89 52.28 4.37 51.18 4.37C48.82 4.37 47.18 6.20 47.18 9.13C47.18 12.11 48.82 13.94 51.11 13.94ZM63.13 13.78L63.97 13.78L63.97 10.67L65.76 8.62L68.70 13.78L69.62 13.78L66.30 7.98L69.27 4.54L68.31 4.54L64.01 9.48L63.97 9.48L63.97 4.54L63.13 4.54ZM81.91 13.94C83.09 13.94 83.96 13.44 84.67 12.63L84.18 12.11C83.54 12.82 82.87 13.20 81.96 13.20C80.05 13.20 78.85 11.61 78.85 9.13C78.85 6.66 80.05 5.11 81.98 5.11C82.80 5.11 83.45 5.47 83.94 6.01L84.42 5.46C83.92 4.89 83.08 4.37 81.98 4.37C79.62 4.37 77.98 6.20 77.98 9.13C77.98 12.11 79.62 13.94 81.91 13.94ZM92.97 13.78L93.81 13.78L94.82 10.71L98.36 10.71L99.36 13.78L100.23 13.78L97.05 4.54L96.15 4.54ZM95.07 10.02L95.59 8.41C95.94 7.34 96.25 6.37 96.57 5.25L96.63 5.25C96.94 6.37 97.24 7.34 97.61 8.41L98.13 10.02ZM111.58 13.78L112.42 13.78L112.42 5.24L115.56 5.24L115.56 4.54L108.44 4.54L108.44 5.24L111.58 5.24ZM124.47 9.48L130.33 9.48L130.33 8.83L124.47 8.83ZM142.38 13.78L143.22 13.78L143.22 5.24L146.36 5.24L146.36 4.54L139.24 4.54L139.24 5.24L142.38 5.24ZM155.44 13.78L160.96 13.78L160.96 13.06L158.62 13.06L158.62 5.24L160.96 5.24L160.96 4.54L155.44 4.54L155.44 5.24L157.78 5.24L157.78 13.06L155.44 13.06ZM170.65 13.78L171.43 13.78L171.43 8.36C171.43 7.46 171.35 6.55 171.33 5.64L171.35 5.64L172.33 7.49L175.70 13.78L176.55 13.78L176.55 4.54L175.77 4.54L175.77 9.90C175.77 10.82 175.85 11.77 175.87 12.66L175.85 12.66L171.50 4.54L170.65 4.54ZM186.33 13.78L187.17 13.78L187.17 10.67L188.96 8.62L191.90 13.78L192.82 13.78L189.50 7.98L192.47 4.54L191.51 4.54L187.21 9.48L187.17 9.48L187.17 4.54L186.33 4.54ZM201.92 13.78L207.61 13.78L207.61 13.06L202.76 13.06L202.76 9.25L206.72 9.25L206.72 8.53L202.76 8.53L202.76 5.24L207.47 5.24L207.47 4.54L201.92 4.54ZM217.15 13.78L217.98 13.78L217.98 9.66L219.83 9.66L222.22 13.78L223.17 13.78L220.74 9.62C222.08 9.34 222.96 8.50 222.96 7.01C222.96 5.21 221.70 4.54 219.87 4.54L217.15 4.54ZM217.98 8.96L217.98 5.21L219.70 5.21C221.26 5.21 222.12 5.70 222.12 7.01C222.12 8.33 221.26 8.96 219.70 8.96ZM232.25 13.78L233.03 13.78L233.03 8.36C233.03 7.46 232.95 6.55 232.93 5.64L232.95 5.64L233.93 7.49L237.30 13.78L238.15 13.78L238.15 4.54L237.37 4.54L237.37 9.90C237.37 10.82 237.45 11.77 237.47 12.66L237.45 12.66L233.10 4.54L232.25 4.54ZM251.09 13.94C252.29 13.94 253.22 13.48 253.79 12.89L253.79 9.14L250.98 9.14L250.98 9.84L252.99 9.84L252.99 12.56C252.59 12.95 251.90 13.20 251.15 13.20C249.20 13.20 248.07 11.61 248.07 9.13C248.07 6.66 249.28 5.11 251.22 5.11C252.15 5.11 252.74 5.50 253.22 6.01L253.69 5.46C253.20 4.94 252.42 4.37 251.22 4.37C248.82 4.37 247.18 6.19 247.18 9.13C247.18 12.11 248.79 13.94 251.09 13.94ZM263.24 13.78L268.76 13.78L268.76 13.06L266.42 13.06L266.42 5.24L268.76 5.24L268.76 4.54L263.24 4.54L263.24 5.24L265.58 5.24L265.58 13.06L263.24 13.06ZM278.45 13.78L279.23 13.78L279.23 8.36C279.23 7.46 279.15 6.55 279.13 5.64L279.15 5.64L280.13 7.49L283.50 13.78L284.35 13.78L284.35 4.54L283.57 4.54L283.57 9.90C283.57 10.82 283.65 11.77 283.67 12.66L283.65 12.66L279.30 4.54L278.45 4.54ZM294.32 13.78L300.01 13.78L300.01 13.06L295.16 13.06L295.16 9.25L299.12 9.25L299.12 8.53L295.16 8.53L295.16 5.24L299.87 5.24L299.87 4.54L294.32 4.54ZM309.72 13.78L315.41 13.78L315.41 13.06L310.56 13.06L310.56 9.25L314.52 9.25L314.52 8.53L310.56 8.53L310.56 5.24L315.27 5.24L315.27 4.54L309.72 4.54ZM324.95 13.78L325.78 13.78L325.78 9.66L327.63 9.66L330.02 13.78L330.97 13.78L328.54 9.62C329.88 9.34 330.76 8.50 330.76 7.01C330.76 5.21 329.50 4.54 327.67 4.54L324.95 4.54ZM325.78 8.96L325.78 5.21L327.50 5.21C329.06 5.21 329.92 5.70 329.92 7.01C329.92 8.33 329.06 8.96 327.50 8.96ZM343.11 13.94C345.03 13.94 346.25 12.84 346.25 11.40C346.25 10.00 345.28 9.45 344.19 8.95L342.83 8.36C342.09 8.02 341.14 7.64 341.14 6.65C341.14 5.70 341.95 5.11 343.17 5.11C344.13 5.11 344.88 5.47 345.46 6.02L345.93 5.47C345.31 4.84 344.33 4.37 343.17 4.37C341.50 4.37 340.28 5.33 340.28 6.71C340.28 8.05 341.40 8.68 342.29 9.04L343.66 9.63C344.62 10.07 345.41 10.37 345.41 11.47C345.41 12.50 344.54 13.20 343.11 13.20C342.02 13.20 341.03 12.71 340.34 11.97L339.82 12.56C340.59 13.38 341.73 13.94 343.11 13.94Z"></path></g></svg>