<svg data-v-423bf9ae="" xmlns="http://www.w3.org/2000/svg" viewBox="0 0 129.47111736409695 60" class="font"><!----><!----><!----><g data-v-423bf9ae="" id="5e354994-49c8-4df3-ba6a-3feda1a12cd8" fill="white" transform="matrix(4.882017915885615,0,0,4.882017915885615,-5.126117082178908,-17.42880387222037)"><path d="M1.36 12.61L1.36 12.61L1.36 12.61Q1.65 10.64 1.81 8.82L1.81 8.82L1.81 8.82Q1.97 7 1.97 5.52L1.97 5.52L1.97 5.52Q1.97 4.03 1.78 3.57L1.78 3.57L1.78 3.57Q3.28 3.96 3.65 4.80L3.65 4.80L3.65 4.80Q4.73 4.20 5.94 4.20L5.94 4.20L5.94 4.20Q7.14 4.20 7.90 4.88L7.90 4.88L7.90 4.88Q8.67 5.56 8.67 6.53L8.67 6.53L8.67 6.53Q8.67 7.50 7.97 8.34L7.97 8.34L7.97 8.34Q7.27 9.17 6.05 9.58L6.05 9.58L6.05 9.58Q7.03 9.79 7.85 10.52L7.85 10.52L7.85 10.52Q8.67 11.26 8.67 12.33L8.67 12.33L8.67 12.33Q8.67 13.99 7.44 14.88L7.44 14.88L7.44 14.88Q6.22 15.76 4.35 15.76L4.35 15.76L4.35 15.76Q2.48 15.76 1.05 14.69L1.05 14.69L1.05 14.69Q1.06 14.57 1.36 12.61ZM6.69 6.86L6.69 6.86Q6.69 6.23 6.30 5.80L6.30 5.80L6.30 5.80Q5.91 5.38 5.19 5.38L5.19 5.38L5.19 5.38Q4.48 5.38 3.82 5.67L3.82 5.67L3.82 5.67Q3.82 6.52 3.45 9.97L3.45 9.97L3.45 9.97Q3.08 13.41 3.08 14.38L3.08 14.38L3.08 14.38Q3.70 14.63 4.27 14.63L4.27 14.63L4.27 14.63Q5.26 14.63 5.91 13.97L5.91 13.97L5.91 13.97Q6.55 13.31 6.55 12.32L6.55 12.32L6.55 12.32Q6.55 11.33 5.88 10.66L5.88 10.66L5.88 10.66Q5.21 10.00 4.00 9.94L4.00 9.94L3.96 9.44L3.96 9.44Q5.25 9.25 5.97 8.49L5.97 8.49L5.97 8.49Q6.69 7.73 6.69 6.86L6.69 6.86ZM14.03 15.64L14.03 15.64L14.03 15.64Q12.38 15.64 11.26 14.38L11.26 14.38L11.26 14.38Q10.14 13.12 10.14 10.71L10.14 10.71L10.14 10.71Q10.14 8.02 11.52 6.13L11.52 6.13L11.52 6.13Q12.21 5.22 13.28 4.68L13.28 4.68L13.28 4.68Q14.35 4.14 15.76 4.14L15.76 4.14L15.76 4.14Q17.16 4.14 17.90 4.89L17.90 4.89L17.90 4.89Q18.63 5.64 18.63 6.66L18.63 6.66L18.63 6.66Q18.63 7.67 18.07 8.31L18.07 8.31L18.07 8.31Q17.51 8.95 16.62 8.95L16.62 8.95L16.62 8.95Q16.31 8.95 15.90 8.83L15.90 8.83L15.90 8.83Q16.20 8.47 16.42 7.80L16.42 7.80L16.42 7.80Q16.65 7.13 16.65 6.52L16.65 6.52L16.65 6.52Q16.65 5.92 16.37 5.54L16.37 5.54L16.37 5.54Q16.09 5.17 15.48 5.17L15.48 5.17L15.48 5.17Q14.56 5.17 13.82 6.02L13.82 6.02L13.82 6.02Q13.08 6.87 12.71 8.12L12.71 8.12L12.71 8.12Q12.35 9.37 12.35 10.70L12.35 10.70L12.35 10.70Q12.35 12.49 13.05 13.41L13.05 13.41L13.05 13.41Q13.75 14.34 14.84 14.34L14.84 14.34L14.84 14.34Q15.53 14.34 16.27 13.87L16.27 13.87L16.27 13.87Q17.01 13.41 17.68 12.56L17.68 12.56L17.68 12.56Q18.20 12.67 18.20 13.08L18.20 13.08L18.20 13.08Q17.67 14.04 16.90 14.64L16.90 14.64L16.90 14.64Q16.13 15.25 15.44 15.44L15.44 15.44L15.44 15.44Q14.76 15.64 14.03 15.64ZM19.52 4.49L19.52 4.49L19.52 4.49Q21.03 4.75 23.14 4.75L23.14 4.75L23.14 4.75Q25.26 4.75 27.57 4.24L27.57 4.24L27.57 4.24Q27.33 6.02 25.76 6.19L25.76 6.19L25.76 6.19Q25.27 6.26 24.25 6.33L24.25 6.33L24.25 6.33Q24.22 6.73 23.79 9.88L23.79 9.88L23.79 9.88Q23.35 13.02 23.35 14.21L23.35 14.21L23.35 14.21Q23.35 15.40 23.55 15.86L23.55 15.86L23.55 15.86Q22.36 15.55 21.92 15.04L21.92 15.04L21.92 15.04Q21.49 14.53 21.49 13.78L21.49 13.78L21.49 13.78Q21.49 13.02 21.85 10.49L21.85 10.49L21.85 10.49Q22.20 7.97 22.27 6.43L22.27 6.43L22.27 6.43Q21.14 6.48 20.05 6.48L20.05 6.48L20.05 6.48Q19.40 6.48 19.40 5.33L19.40 5.33L19.40 5.33Q19.43 4.79 19.52 4.49Z"></path></g><!----><!----></svg>